<mxfile host="app.diagrams.net">
  <diagram name="RAG流程" id="RAG-Diagram">
    <mxGraphModel>
      <root>
        <mxCell id="0" />
        <mxCell id="1" parent="0" />

        <!-- 数据入库部分 -->
        <mxCell id="2" value="本地文档" style="rounded=1;fillColor=#dae8fc;strokeColor=#6c8ebf;" vertex="1" parent="1">
          <mxGeometry x="20" y="40" width="80" height="40" as="geometry"/>
        </mxCell>
        <mxCell id="3" value="文本抽取 Text" style="rounded=1;fillColor=#fff2cc;strokeColor=#d6b656;" vertex="1" parent="1">
          <mxGeometry x="140" y="40" width="120" height="40" as="geometry"/>
        </mxCell>
        <mxCell id="4" value="文本分割 Chunks" style="rounded=1;fillColor=#ffe6cc;strokeColor=#d79b00;" vertex="1" parent="1">
          <mxGeometry x="300" y="40" width="120" height="40" as="geometry"/>
        </mxCell>
        <mxCell id="5" value="文本向量 Embedding" style="rounded=1;fillColor=#d5e8d4;strokeColor=#82b366;" vertex="1" parent="1">
          <mxGeometry x="460" y="40" width="160" height="40" as="geometry"/>
        </mxCell>
        <mxCell id="6" value="向量数据库" style="shape=cylinder;fillColor=#f8cecc;strokeColor=#b85450;" vertex="1" parent="1">
          <mxGeometry x="660" y="30" width="80" height="60" as="geometry"/>
        </mxCell>

        <!-- 数据入库箭头 -->
        <mxCell id="a1" edge="1" parent="1" source="2" target="3">
          <mxGeometry relative="1" as="geometry"/>
        </mxCell>
        <mxCell id="a2" edge="1" parent="1" source="3" target="4">
          <mxGeometry relative="1" as="geometry"/>
        </mxCell>
        <mxCell id="a3" edge="1" parent="1" source="4" target="5">
          <mxGeometry relative="1" as="geometry"/>
        </mxCell>
        <mxCell id="a4" edge="1" parent="1" source="5" target="6">
          <mxGeometry relative="1" as="geometry"/>
        </mxCell>

        <!-- 问题相关性检索部分 -->
        <mxCell id="7" value="问题" style="rounded=1;fillColor=#dae8fc;strokeColor=#6c8ebf;" vertex="1" parent="1">
          <mxGeometry x="20" y="140" width="80" height="40" as="geometry"/>
        </mxCell>
        <mxCell id="8" value="问题向量 Embedding" style="rounded=1;fillColor=#d5e8d4;strokeColor=#82b366;" vertex="1" parent="1">
          <mxGeometry x="140" y="140" width="160" height="40" as="geometry"/>
        </mxCell>
        <mxCell id="9" value="相似度检索" style="rounded=1;fillColor=#ffe6cc;strokeColor=#d79b00;" vertex="1" parent="1">
          <mxGeometry x="340" y="140" width="120" height="40" as="geometry"/>
        </mxCell>
        <mxCell id="10" value="相关上下文 Context" style="rounded=1;fillColor=#fff2cc;strokeColor=#d6b656;" vertex="1" parent="1">
          <mxGeometry x="500" y="140" width="160" height="40" as="geometry"/>
        </mxCell>

        <!-- 检索箭头 -->
        <mxCell id="a5" edge="1" parent="1" source="7" target="8">
          <mxGeometry relative="1" as="geometry"/>
        </mxCell>
        <mxCell id="a6" edge="1" parent="1" source="8" target="9">
          <mxGeometry relative="1" as="geometry"/>
        </mxCell>
        <mxCell id="a7" edge="1" parent="1" source="9" target="10">
          <mxGeometry relative="1" as="geometry"/>
        </mxCell>
        <mxCell id="a8" edge="1" parent="1" source="9" target="6">
          <mxGeometry relative="1" as="geometry"/>
        </mxCell>

        <!-- 大模型输出部分 -->
        <mxCell id="11" value="LLM 大语言模型" style="rounded=1;fillColor=#f5f5f5;strokeColor=#999999;" vertex="1" parent="1">
          <mxGeometry x="740" y="140" width="160" height="40" as="geometry"/>
        </mxCell>
        <mxCell id="12" value="答案输出" style="rounded=1;fillColor=#e1d5e7;strokeColor=#9673a6;" vertex="1" parent="1">
          <mxGeometry x="940" y="140" width="100" height="40" as="geometry"/>
        </mxCell>

        <!-- 输出箭头 -->
        <mxCell id="a9" edge="1" parent="1" source="10" target="11">
          <mxGeometry relative="1" as="geometry"/>
        </mxCell>
        <mxCell id="a10" edge="1" parent="1" source="11" target="12">
          <mxGeometry relative="1" as="geometry"/>
        </mxCell>

      </root>
    </mxGraphModel>
  </diagram>
</mxfile>
